<?xml version="1.0" encoding="UTF-8"?>
<svg version="1.1" xmlns="http://www.w3.org/2000/svg" width="896" height="845">
<path d="M0 0 C295.68 0 591.36 0 896 0 C896 278.85 896 557.7 896 845 C600.32 845 304.64 845 0 845 C0 566.15 0 287.3 0 0 Z " fill="#3490DE" transform="translate(0,0)"/>
<path d="M0 0 C295.68 0 591.36 0 896 0 C896 278.85 896 557.7 896 845 C600.32 845 304.64 845 0 845 C0 566.15 0 287.3 0 0 Z M88.25390625 89.1796875 C83.98994178 95.36974185 83.56718337 100.86249964 83.61968327 108.1725893 C83.61502335 109.18731771 83.61036343 110.20204612 83.6055623 111.24752387 C83.5935844 114.65744118 83.60301879 118.0669621 83.61231995 121.47688293 C83.60814826 123.94243048 83.60267166 126.40797612 83.59600013 128.87351817 C83.584534 134.23916847 83.5824234 139.60470185 83.58855057 144.97035217 C83.59763767 152.9493753 83.58961276 160.92831749 83.57825933 168.9073344 C83.55858234 183.15833547 83.55624703 197.40930019 83.56145453 211.66031161 C83.56601014 224.13341121 83.56541448 236.60649642 83.55961418 249.07959557 C83.55885732 250.75215149 83.55810134 252.42470741 83.55734624 254.09726333 C83.55620105 256.61760783 83.55505117 259.13795232 83.55388699 261.65829681 C83.54318011 285.093983 83.53845862 308.52966439 83.54635715 331.96535206 C83.54665433 332.8489882 83.5469515 333.73262434 83.54725768 334.64303733 C83.54970666 341.81895725 83.55231822 348.99487711 83.55494181 356.17079697 C83.56504339 384.15954173 83.55669129 412.1482265 83.53344727 440.13696289 C83.5073779 471.57868363 83.49452597 503.02036825 83.50163502 534.46210021 C83.50235108 537.81438584 83.50302547 541.16667149 83.50367546 544.51895714 C83.50384527 545.34438139 83.50401508 546.16980565 83.50419003 547.02024276 C83.50649355 559.48334032 83.49851345 571.94640436 83.48538399 584.4094944 C83.47047892 598.58339428 83.4696212 612.75721557 83.4874549 626.93111376 C83.49702402 634.86310618 83.49557066 642.79491534 83.47822021 650.72689556 C83.46650624 656.64897698 83.47569508 662.57090589 83.49304258 668.49297758 C83.49681974 670.88929566 83.49383156 673.28563585 83.48343093 675.68193433 C83.47030151 678.93825612 83.48180941 682.19360738 83.49942875 685.44988728 C83.48977824 686.38101478 83.48012773 687.31214229 83.47018477 688.27148578 C83.57295001 697.51673866 86.29864547 704.99648597 92.92578125 711.52734375 C99.64458217 716.29756587 105.68143965 716.42964263 113.69306087 716.38031673 C115.46171065 716.38730661 115.46171065 716.38730661 117.26609072 716.3944377 C120.54050744 716.40433276 123.81459279 716.40079796 127.08900142 716.39160402 C130.65070732 716.38489715 134.21236824 716.39555886 137.7740646 716.40399987 C144.01695995 716.41637995 150.25978015 716.41757343 156.50268364 716.41144943 C165.78606865 716.40236714 175.06938404 716.41038332 184.35276371 716.42174067 C200.93216242 716.44142281 217.51152988 716.44375205 234.09093748 716.43854547 C248.60033834 716.43399111 263.10972682 716.43458396 277.61912727 716.44038582 C279.56419581 716.44114268 281.50926434 716.44189866 283.45433288 716.44265376 C286.38524828 716.44379894 289.31616369 716.44494881 292.24707909 716.44611301 C319.50160866 716.4568205 346.7561341 716.46154067 374.01066494 716.45364285 C375.03838896 716.45334567 376.06611298 716.4530485 377.12498016 716.45274232 C385.4712258 716.4502933 393.81747139 716.44768175 402.16371698 716.44505819 C434.72415447 716.43495454 467.2845404 716.4433124 499.8449707 716.46655273 C536.41468112 716.49261241 572.98436049 716.50547678 609.55408055 716.49836498 C613.45173935 716.4976489 617.34939815 716.49697452 621.24705696 716.49632454 C622.20678166 716.49615473 623.16650636 716.49598492 624.15531362 716.49580997 C638.65587083 716.49350497 653.15639925 716.5014935 667.65695 716.51461601 C684.14351843 716.52950906 700.6300193 716.53039483 717.11658626 716.5125451 C726.34651245 716.50296395 735.57628119 716.50445389 744.80619695 716.52177979 C750.96857612 716.53224184 757.13083493 716.52820771 763.29320219 716.51229975 C766.80627062 716.50363892 770.31902974 716.50131357 773.83208268 716.51656907 C777.61538119 716.52964026 781.39783651 716.51824223 785.18109798 716.50057125 C786.81910254 716.51504702 786.81910254 716.51504702 788.49019811 716.52981523 C796.52580322 716.45236613 801.79623219 714.78588505 807.875 709.5 C809.69552243 707.35820891 810.9464524 705.58598046 812 703 C812.66 703 813.32 703 814 703 C816.0017712 697.17152782 816.28417905 691.97225512 816.25726891 685.83744144 C816.26252802 684.3169826 816.26252802 684.3169826 816.26789337 682.76580742 C816.27721805 679.35969137 816.27228123 675.95374589 816.26742554 672.54762268 C816.27116124 670.0847756 816.27576243 667.6219297 816.28115618 665.15908569 C816.29085037 659.79941095 816.29429986 654.43978596 816.29224396 649.08010674 C816.28919421 641.11005378 816.29751729 633.14004081 816.30799321 625.16999564 C816.32733779 610.10795644 816.33296157 595.04593086 816.33410732 579.98388071 C816.33502621 568.35415458 816.33914183 556.72443379 816.34550858 545.0947094 C816.34730364 541.74782926 816.34908327 538.40094912 816.35085833 535.05406898 C816.35130043 534.22204463 816.35174252 533.39002028 816.35219802 532.53278308 C816.36450659 509.12924757 816.37239911 485.72571391 816.37151146 462.32217503 C816.3714803 461.43977131 816.37144914 460.55736759 816.37141704 459.64822437 C816.37125083 455.17576394 816.37105274 450.70330351 816.37084763 446.23084307 C816.37080774 445.34258405 816.37076785 444.45432503 816.37072675 443.53914907 C816.37064587 441.74287377 816.37056228 439.94659848 816.37047596 438.15032319 C816.3692501 410.19516537 816.38427003 382.24005605 816.41162109 354.28491211 C816.44233124 322.88349939 816.45955429 291.48211854 816.45769465 260.08068985 C816.45754538 256.73349535 816.45744797 253.38630086 816.45738602 250.03910637 C816.45736271 249.21493042 816.4573394 248.39075447 816.45731538 247.54160349 C816.4572538 234.27018202 816.47003321 220.99880261 816.48725055 207.72739365 C816.50419047 194.39426124 816.5061937 181.06119048 816.4930319 167.72805328 C816.48563219 159.80452367 816.48933109 151.88118112 816.50891658 143.95767127 C816.52229738 138.0454503 816.51483375 132.13337635 816.49917014 126.22115683 C816.49608336 123.82621818 816.49979521 121.43125941 816.51089029 119.03634448 C816.52495137 115.78669445 816.51447134 112.53801612 816.49777794 109.2883997 C816.5077143 108.35362251 816.51765066 107.41884532 816.52788812 106.45574155 C816.44572782 98.91614279 814.24915784 92.7051753 808.875 87.25 C801.32045652 80.41057539 792.83480179 79.41116817 782.99023438 79.49384212 C781.22488877 79.48467209 781.22488877 79.48467209 779.42387962 79.47531679 C776.16952103 79.4624431 772.91576171 79.46735931 769.66142035 79.47992842 C766.11630065 79.48920049 762.57125799 79.47523695 759.02615356 79.46428925 C752.81697556 79.44832136 746.60793313 79.44720243 740.39874268 79.45588684 C731.16544538 79.46876617 721.93227052 79.45879059 712.69898057 79.44438729 C696.20784077 79.41945555 679.71675839 79.41756331 663.22560525 79.42566141 C648.7939508 79.43273354 634.36231863 79.43279224 619.93066406 79.42579842 C617.99499957 79.42488709 616.05933507 79.42397633 614.12367058 79.42306613 C611.20683093 79.421683 608.28999129 79.42029191 605.37315166 79.41887999 C578.25543885 79.40589923 551.1377335 79.400785 524.02001953 79.4124136 C522.99779258 79.41285157 521.97556562 79.41328954 520.92236209 79.41374078 C512.62108128 79.41734763 504.31980058 79.42118239 496.01851988 79.42503171 C463.632107 79.43988156 431.24577843 79.43109639 398.859375 79.40307617 C362.47456683 79.3716568 326.08980857 79.35667536 289.70498657 79.36687618 C285.82643637 79.36791297 281.94788616 79.3689002 278.06933594 79.3698597 C277.11433504 79.37010858 276.15933414 79.37035747 275.17539382 79.3706139 C260.75265366 79.37405548 246.32995755 79.36474213 231.90722656 79.34908867 C215.50824249 79.33133128 199.10936573 79.33117134 182.71038628 79.35444032 C173.53193532 79.3669523 164.35373083 79.36567154 155.17529428 79.34455946 C149.04477516 79.33184388 142.91444602 79.3373001 136.78394759 79.35754427 C133.29072351 79.36857174 129.79798425 79.37175307 126.30478287 79.35286897 C122.53931773 79.33673079 118.77517104 79.3512952 115.00976562 79.37358761 C113.92868719 79.36159593 112.84760876 79.34960425 111.73377037 79.33724919 C102.35204081 79.45093649 94.92833698 82.52518044 88.25390625 89.1796875 Z " fill="#FEFEFE" transform="translate(0,0)"/>
<path d="M0 0 C31.68 0 63.36 0 96 0 C109.77704952 33.29453635 109.77704952 33.29453635 114.87890625 46.19140625 C115.48225589 47.71163094 116.08581053 49.23177428 116.68954468 50.75184631 C117.97598102 53.99184143 119.2611936 57.23231789 120.54537964 60.47320557 C122.64511755 65.77199205 124.74820175 71.06944692 126.85180664 76.36669922 C127.59801004 78.24584848 128.34421057 80.12499889 129.09040833 82.00415039 C129.46662638 82.95157104 129.84284443 83.8989917 130.23046303 84.87512207 C131.39376713 87.80493327 132.55680744 90.73484906 133.71977234 93.66479492 C142.66201165 116.19286932 151.62246237 138.71369146 160.58713913 161.23284531 C161.93645156 164.62236628 163.28562906 168.01194094 164.63479614 171.40151978 C175.05974936 197.5911885 185.50214762 223.77382587 195.97265625 249.9453125 C196.46090315 251.16573368 196.94915005 252.38615486 197.45219231 253.6435585 C202.18193877 265.46534093 206.91337715 277.28644441 211.64805508 289.10625267 C213.3721901 293.4107389 215.09571626 297.71546877 216.81916618 302.02022934 C217.99690428 304.96111168 219.17562194 307.90160006 220.35438538 310.84207153 C221.06508341 312.61702488 221.77573388 314.39199728 222.48632812 316.16699219 C222.80082381 316.95064966 223.1153195 317.73430714 223.43934536 318.54171181 C224.29947967 320.69194079 225.15161004 322.84511334 226 325 C226.43752846 326.09836056 226.43752846 326.09836056 226.88389587 327.21891022 C228.07650464 330.28089168 229 332.68384524 229 336 C239.56 336 250.12 336 261 336 C261 359.43 261 382.86 261 407 C204.9 407 148.8 407 91 407 C91 383.24 91 359.48 91 335 C103.21 335 115.42 335 128 335 C126.56206355 327.9951468 126.56206355 327.9951468 124.3125 321.5625 C122.23984836 316.58183141 120.22611786 311.5821678 118.25 306.5625 C117.93200439 305.76851807 117.61400879 304.97453613 117.28637695 304.15649414 C116.99077881 303.40489014 116.69518066 302.65328613 116.390625 301.87890625 C116.12282227 301.2041626 115.85501953 300.52941895 115.57910156 299.83422852 C115 298 115 298 115 295 C71.77 295 28.54 295 -16 295 C-16.99 298.3 -17.98 301.6 -19 305 C-19.98500987 307.38308839 -20.97008392 309.76615085 -21.95703125 312.1484375 C-23.68138816 316.86297137 -24.85057632 321.71820724 -26.0703125 326.58203125 C-27 330 -27 330 -29 335 C-16.46 335 -3.92 335 9 335 C9 358.76 9 382.52 9 407 C-43.8 407 -96.6 407 -151 407 C-151 383.57 -151 360.14 -151 336 C-140.44 336 -129.88 336 -119 336 C-118.34 333.03 -117.68 330.06 -117 327 C-116.49251459 325.35771445 -115.9506295 323.72499716 -115.35180664 322.11376953 C-115.04130875 321.26904083 -114.73081085 320.42431213 -114.41090393 319.5539856 C-114.0806572 318.67249847 -113.75041046 317.79101135 -113.41015625 316.8828125 C-113.06496445 315.94500946 -112.71977264 315.00720642 -112.36412048 314.04098511 C-111.26901877 311.06694738 -110.16655416 308.09572485 -109.0625 305.125 C-107.9624146 302.16127752 -106.86418311 299.196932 -105.77159119 296.23043823 C-105.09486613 294.39327978 -104.41398634 292.55764387 -103.7280426 290.72390747 C-102.10616316 286.32322928 -100.68949477 281.95628311 -99.51733398 277.41357422 C-98.38538672 273.11014 -96.88297132 269.2303251 -95.00210571 265.20559692 C-93.2593821 261.3699279 -91.89083419 257.40084426 -90.48046875 253.43359375 C-90.14944153 252.51138031 -89.81841431 251.58916687 -89.47735596 250.63900757 C-88.37760105 247.57295221 -87.28261013 244.50521708 -86.1875 241.4375 C-85.39952418 239.23839842 -84.61118463 237.03942715 -83.82250977 234.84057617 C-82.11901552 230.08992329 -80.41729813 225.33863909 -78.71679688 220.58691406 C-74.45745321 208.68803447 -70.18159418 196.79508444 -65.90701294 184.90167236 C-64.68313981 181.49628418 -63.45979848 178.09070522 -62.23660755 174.68507195 C-57.459147 161.38405323 -52.67497989 148.0855569 -47.86328125 134.796875 C-47.26724342 133.15068428 -47.26724342 133.15068428 -46.65916443 131.47123718 C-44.82097231 126.3958488 -42.98096992 121.32112518 -41.13842773 116.24731445 C-40.49332069 114.46826394 -39.84821942 112.68921134 -39.203125 110.91015625 C-38.91983841 110.13190491 -38.63655182 109.35365356 -38.34468079 108.55181885 C-35.7037944 101.26405092 -33.25041636 93.93703757 -31.0625 86.5 C-29.9255829 82.76626087 -28.73440226 79.21332615 -27.0625 75.6875 C-24.83695623 70.96585617 -23.37742781 66.02341245 -21.92602539 61.0222168 C-20.61390774 56.60612942 -18.93900351 52.49656106 -17.02587891 48.30761719 C-15.3234148 44.47808584 -13.8787698 40.55880929 -12.4375 36.625 C-11.97863403 35.38000732 -11.97863403 35.38000732 -11.51049805 34.10986328 C-9.62083835 28.91139575 -8.02564425 23.71877274 -6.6796875 18.3515625 C-5.7577789 15.16197068 -4.42388453 12.24230258 -2.96484375 9.265625 C-1.69427244 6.28209722 -0.89086727 3.11803543 0 0 Z " fill="#FDFEFE" transform="translate(285,259)"/>
<path d="M0 0 C63.36 0 126.72 0 192 0 C192 23.76 192 47.52 192 72 C177.48 72 162.96 72 148 72 C148 159.12 148 246.24 148 336 C162.52 336 177.04 336 192 336 C192 359.43 192 382.86 192 407 C128.64 407 65.28 407 0 407 C0 383.24 0 359.48 0 335 C14.52 335 29.04 335 44 335 C44 248.21 44 161.42 44 72 C29.48 72 14.96 72 0 72 C0 48.24 0 24.48 0 0 Z " fill="#FDFDFE" transform="translate(573,259)"/>
<path d="M0 0 C7.85923095 -0.11368897 15.71799941 -0.205107 23.57783031 -0.25906086 C27.22887808 -0.28497731 30.8793264 -0.32003756 34.5300293 -0.37719727 C38.06384848 -0.43217045 41.59709711 -0.46155487 45.13131142 -0.47438622 C47.11248753 -0.48790273 49.0934392 -0.52682781 51.07426453 -0.56648254 C60.90105508 -0.56947466 70.34801347 1.34566587 78.5 7.1875 C86.48385477 16.16933661 86.63833825 24.56665267 86 36 C85.34 36 84.68 36 84 36 C83.9175 36.70125 83.835 37.4025 83.75 38.125 C82.16715186 44.19258452 78.29631646 47.87722768 73.5859375 51.703125 C71.87651199 53.05697421 71.87651199 53.05697421 70 55 C70.44730469 55.43828125 70.89460938 55.8765625 71.35546875 56.328125 C76.0497583 61.25262492 78.50603186 65.95713047 80.76171875 72.36328125 C82.13184083 75.28073363 83.2454463 76.38654272 86 78 C88.64934822 78.71433121 88.64934822 78.71433121 91 79 C90.45136137 85.7857936 89.45732062 92.35009036 88 99 C77.58333831 99.52668514 70.93076794 99.31442195 63 92.375 C61 90 61 90 61 88 C60.34 88 59.68 88 59 88 C58.78384033 87.39003174 58.56768066 86.78006348 58.3449707 86.15161133 C57.34866908 83.36646534 56.33085134 80.58965564 55.3125 77.8125 C54.97283203 76.85279297 54.63316406 75.89308594 54.28320312 74.90429688 C52.32701941 69.62077262 50.69660981 65.43654377 46 62 C43.35990852 61.19904976 43.35990852 61.19904976 40.6875 61.1875 C39.140625 61.125625 37.59375 61.06375 36 61 C36 67.27 36 73.54 36 80 C39.3 80 42.6 80 46 80 C46 85.94 46 91.88 46 98 C30.82 98 15.64 98 0 98 C0 92.06 0 86.12 0 80 C3.3 80 6.6 80 10 80 C10 59.21 10 38.42 10 17 C6.7 17 3.4 17 0 17 C0 11.39 0 5.78 0 0 Z " fill="#F9FCFE" transform="translate(331,133)"/>
<path d="M0 0 C1.08864349 0.00539291 1.08864349 0.00539291 2.19927979 0.01089478 C2.96020432 0.01074875 3.72112885 0.01060272 4.50511169 0.01045227 C7.03202113 0.01115155 9.55885776 0.01894462 12.08575439 0.02676392 C13.83310404 0.02862804 15.58045421 0.03005197 17.32780457 0.03105164 C21.93591749 0.03487724 26.54399909 0.04470788 31.15209961 0.05575562 C35.85068335 0.06596883 40.54927214 0.07054906 45.24786377 0.07559204 C54.47379123 0.08633011 63.69968719 0.10392725 72.92559814 0.12442017 C72.92559814 10.68442017 72.92559814 21.24442017 72.92559814 32.12442017 C66.65559814 32.12442017 60.38559814 32.12442017 53.92559814 32.12442017 C53.92559814 27.83442017 53.92559814 23.54442017 53.92559814 19.12442017 C46.00559814 19.12442017 38.08559814 19.12442017 29.92559814 19.12442017 C29.92559814 26.05442017 29.92559814 32.98442017 29.92559814 40.12442017 C39.49559814 40.12442017 49.06559814 40.12442017 58.92559814 40.12442017 C58.92559814 46.39442017 58.92559814 52.66442017 58.92559814 59.12442017 C49.35559814 59.12442017 39.78559814 59.12442017 29.92559814 59.12442017 C29.92559814 66.05442017 29.92559814 72.98442017 29.92559814 80.12442017 C38.17559814 80.12442017 46.42559814 80.12442017 54.92559814 80.12442017 C54.92559814 75.50442017 54.92559814 70.88442017 54.92559814 66.12442017 C61.19559814 66.12442017 67.46559814 66.12442017 73.92559814 66.12442017 C73.92559814 77.01442017 73.92559814 87.90442017 73.92559814 99.12442017 C47.52559814 99.12442017 21.12559814 99.12442017 -6.07440186 99.12442017 C-6.07440186 93.51442017 -6.07440186 87.90442017 -6.07440186 82.12442017 C-0.62940186 81.62942017 -0.62940186 81.62942017 4.92559814 81.12442017 C5.25559814 60.33442017 5.58559814 39.54442017 5.92559814 18.12442017 C1.96559814 18.12442017 -1.99440186 18.12442017 -6.07440186 18.12442017 C-6.10124498 15.31185735 -6.12116373 12.49954776 -6.13690186 9.68692017 C-6.14528076 8.88447876 -6.15365967 8.08203735 -6.16229248 7.25527954 C-6.17091616 5.21146796 -6.12668335 3.16758115 -6.07440186 1.12442017 C-4.37771979 -0.5722619 -2.26308167 0.00473024 0 0 Z " fill="#F9FCFE" transform="translate(245.07440185546875,131.87557983398438)"/>
<path d="M0 0 C2.30664062 -0.35644531 2.30664062 -0.35644531 5.15625 -0.328125 C6.68958984 -0.32039062 6.68958984 -0.32039062 8.25390625 -0.3125 C9.32511719 -0.291875 10.39632812 -0.27125 11.5 -0.25 C12.57121094 -0.24484375 13.64242187 -0.2396875 14.74609375 -0.234375 C22.6915621 -0.15421895 22.6915621 -0.15421895 25 1 C26.18450042 3.62562679 27.26408945 6.2340092 28.30078125 8.91796875 C28.61903366 9.72680008 28.93728607 10.53563141 29.2651825 11.36897278 C29.94166497 13.09196291 30.61480842 14.81626708 31.28491211 16.54174805 C32.29176337 19.13410897 33.30792732 21.72264298 34.32617188 24.31054688 C37.69320936 32.89683387 40.9591095 41.50263761 43.9934082 50.21289062 C45.12300004 53.34056961 46.42708161 56.34262711 47.8203125 59.359375 C49.54760874 63.2257732 51.14334245 67.144715 52.75 71.0625 C53.22735596 72.22616089 53.22735596 72.22616089 53.71435547 73.41333008 C54.47722825 75.27514752 55.23875523 77.13751631 56 79 C58.64 79.33 61.28 79.66 64 80 C64 85.94 64 91.88 64 98 C50.14 98 36.28 98 22 98 C22 81 22 81 23 80 C25.67058851 79.85884839 28.32432238 79.95752893 31 80 C30.01 75.545 30.01 75.545 29 71 C12.665 71.495 12.665 71.495 -4 72 C-4.66 74.64 -5.32 77.28 -6 80 C-3.03 80 -0.06 80 3 80 C3 85.94 3 91.88 3 98 C-9.87 98 -22.74 98 -36 98 C-36 92.06 -36 86.12 -36 80 C-33.36 80 -30.72 80 -28 80 C-26.41165323 75.33634353 -24.88550302 70.66580394 -23.5 65.9375 C-22.43041371 62.33729461 -21.22939855 58.82461728 -19.8828125 55.31640625 C-17.11405307 48.05147553 -14.38471625 40.7995736 -12.5 33.25 C-11.56265575 29.60653759 -10.3518525 26.55676693 -8.5625 23.25 C-5.6466737 17.7959996 -4.32366302 12.20068404 -2.89453125 6.22265625 C-2 3 -2 3 0 0 Z " fill="#F9FBFE" transform="translate(619,133)"/>
<path d="M0 0 C0.70125 0.40734375 1.4025 0.8146875 2.125 1.234375 C7.11181304 4.4342467 10.13796396 8.41389187 12 14 C12.125 17.625 12.125 17.625 12 21 C10.46834539 22.53165461 8.77422855 22.54904975 6.66796875 22.97265625 C5.34635742 23.23852539 5.34635742 23.23852539 3.99804688 23.50976562 C3.07056641 23.69216797 2.14308594 23.87457031 1.1875 24.0625 C0.27162109 24.24876953 -0.64425781 24.43503906 -1.58789062 24.62695312 C-2.47283203 24.80291016 -3.35777344 24.97886719 -4.26953125 25.16015625 C-5.08010986 25.32136963 -5.89068848 25.48258301 -6.72583008 25.64868164 C-9 26 -9 26 -13 26 C-13.3403125 24.3603125 -13.3403125 24.3603125 -13.6875 22.6875 C-14.68707721 19.01667672 -14.68707721 19.01667672 -17 17.0625 C-21.36142695 15.51782795 -25.42279282 15.4127925 -30 16 C-32.9254644 17.3509288 -32.9254644 17.3509288 -35 19 C-35.66 19 -36.32 19 -37 19 C-36.83758854 23.14149226 -36.58524722 25.36108824 -33.7421875 28.46484375 C-28.0898095 32.88270743 -20.57174051 34.35117587 -13.828125 36.4296875 C-3.82954071 39.66996945 4.88710161 44.21270856 11 53 C14.4774756 60.11640542 14.26592742 68.94623976 11.9375 76.40234375 C8.26808356 84.30953734 3.42393427 89.08422514 -3.75 93.8125 C-19.02093597 99.39226507 -35.22897049 98.21681791 -50 92 C-54.61657391 89.36868747 -58.0340968 86.42658827 -61 82 C-61 81.34 -61 80.68 -61 80 C-61.66 80 -62.32 80 -63 80 C-63 78.68 -63 77.36 -63 76 C-63.66 76 -64.32 76 -65 76 C-65 73.03 -65 70.06 -65 67 C-61.77197209 66.32736907 -58.54276967 65.6617023 -55.3125 65 C-54.40048828 64.80921875 -53.48847656 64.6184375 -52.54882812 64.421875 C-51.66259766 64.24140625 -50.77636719 64.0609375 -49.86328125 63.875 C-49.05157471 63.70742187 -48.23986816 63.53984375 -47.40356445 63.3671875 C-44.89938135 62.9846287 -42.52924498 62.93701491 -40 63 C-39.5359375 64.6396875 -39.5359375 64.6396875 -39.0625 66.3125 C-38.41662103 68.55407994 -37.7376883 70.7869351 -37 73 C-30.92445459 75.1376919 -24.40651886 75.92516499 -18 75 C-15.82170752 73.54379449 -15.82170752 73.54379449 -14 72 C-13.34 72 -12.68 72 -12 72 C-12.69001325 67.27196547 -12.69001325 67.27196547 -15.54931641 63.65478516 C-20.79321814 60.44892377 -26.03174147 58.41689408 -31.875 56.5625 C-42.60782663 52.95615269 -52.68785804 49.01835376 -59 39 C-59.68359375 36.25390625 -59.68359375 36.25390625 -60 34 C-60.66 34 -61.32 34 -62 34 C-62.84363146 13.58880553 -62.84363146 13.58880553 -55.5625 5.1875 C-54.716875 4.465625 -53.87125 3.74375 -53 3 C-52.21625 2.29875 -51.4325 1.5975 -50.625 0.875 C-37.55149357 -8.46321888 -13.54284803 -8.32702143 0 0 Z " fill="#FBFCFE" transform="translate(752,136)"/>
<path d="M0 0 C3.74825946 2.49883964 3.82281336 3.92510338 5 8.1875 C6.13882261 12.26353594 7.43918627 16.06285258 9.15234375 19.9309082 C11.45502922 25.55166263 13.1617359 31.42218031 15.0390625 37.1953125 C16.8110492 42.59243231 18.71870127 47.80076104 21 53 C21.78583133 55.44480859 22.47243154 57.90022845 23.15625 60.375 C23.98592143 63.10983205 23.98592143 63.10983205 25.34375 66.0625 C28.05790059 72.25478432 29.95063431 78.77300326 32.0390625 85.1953125 C33.8110492 90.59243231 35.71870127 95.80076104 38 101 C38.53247161 102.65657833 39.03656283 104.32279883 39.5 106 C40.38345613 109.07573615 41.3573268 111.96485581 42.6875 114.875 C44 118 44 118 44 122 C16.94 122 -10.12 122 -38 122 C-37 118 -37 118 -36 116.03125 C-34.9223669 113.84230777 -34.45854303 111.89097436 -34 109.5 C-33.39024023 106.32053835 -32.4419856 103.8839712 -31 101 C-30.62238794 99.51053021 -30.28941438 98.00908927 -30 96.5 C-29.39024023 93.32053835 -28.4419856 90.8839712 -27 88 C-26.62238794 86.51053021 -26.28941438 85.00908927 -26 83.5 C-25.39041742 80.32146224 -24.44402478 77.88238671 -23 75 C-22.64383264 73.57269229 -22.3322064 72.13364002 -22.0625 70.6875 C-21.19540507 66.51588581 -19.73337589 62.90009576 -18 59 C-16.97630064 55.73695828 -16.11045059 52.4626302 -15.31640625 49.13671875 C-15.06761719 48.10160156 -14.81882812 47.06648438 -14.5625 46 C-14.22412109 44.5459375 -14.22412109 44.5459375 -13.87890625 43.0625 C-13.08307463 40.28946893 -12.03486929 37.79059454 -10.86743164 35.16015625 C-8.88712539 30.2286196 -7.4732917 25.08321408 -5.9375 20 C-5.58623047 18.85015625 -5.23496094 17.7003125 -4.87304688 16.515625 C-3.19956298 11.02381397 -1.55067377 5.52779042 0 0 Z " fill="#3892DE" transform="translate(329,361)"/>
<path d="M0 0 C14.19 0 28.38 0 43 0 C43 5.94 43 11.88 43 18 C39.7 18 36.4 18 33 18 C33.53109375 19.14984375 34.0621875 20.2996875 34.609375 21.484375 C37.46551349 27.91698319 39.94851581 34.49216412 42.42871094 41.07617188 C43.25459327 43.26215769 44.09207267 45.44348738 44.9296875 47.625 C45.45905228 49.02577018 45.98772314 50.42680284 46.515625 51.828125 C46.8905307 52.79700653 46.8905307 52.79700653 47.27301025 53.78546143 C48.58564988 57.31471407 49.28521122 60.23126555 49 64 C49.66 64 50.32 64 51 64 C51.13921875 63.4328125 51.2784375 62.865625 51.421875 62.28125 C53.00825613 56.02147582 54.91795789 50.05125327 57.5 44.125 C59.67267021 39.07921665 61.01890103 34.12434031 62.2421875 28.78125 C63.31620509 24.83949472 65.0145795 21.56006435 67 18 C63.7 18 60.4 18 57 18 C56.97315688 15.18743719 56.95323812 12.37512759 56.9375 9.5625 C56.92912109 8.76005859 56.92074219 7.95761719 56.91210938 7.13085938 C56.9034857 5.08704779 56.9477185 3.04316098 57 1 C58 0 58 0 61.87719727 -0.11352539 C63.60694167 -0.11336621 65.33669081 -0.10766849 67.06640625 -0.09765625 C67.97502914 -0.0962413 68.88365204 -0.09482635 69.81980896 -0.09336853 C72.73407221 -0.08775193 75.64825981 -0.07519665 78.5625 -0.0625 C80.53320202 -0.05748714 82.50390524 -0.05292386 84.47460938 -0.04882812 C89.31645914 -0.03862617 94.15814447 -0.01905409 99 0 C99 5.94 99 11.88 99 18 C96.03 18 93.06 18 90 18 C90.061875 18.721875 90.12375 19.44375 90.1875 20.1875 C89.96066694 23.58999583 88.78240267 25.12073415 87 28 C86.2986716 30.32315031 85.63514826 32.65789079 85 35 C84.05541183 37.68802806 83.02862804 40.34314163 82 43 C80.30030531 47.40375442 78.72399847 51.81360859 77.26074219 56.30224609 C75.14515798 62.78386314 72.81224762 69.08242509 70.125 75.35546875 C68.63166793 78.86583615 67.31326621 82.41836489 66 86 C65.48060312 87.39636848 64.9597628 88.79220088 64.4375 90.1875 C64.20933594 90.79980469 63.98117188 91.41210938 63.74609375 92.04296875 C62.85797075 94.37254793 61.92592557 96.68518608 61 99 C53.08 99 45.16 99 37 99 C36.48824219 97.25332031 35.97648437 95.50664062 35.44921875 93.70703125 C32.63094798 84.55414923 29.20767521 75.63874081 25.8125 66.6875 C25.14134998 64.90868492 24.47061733 63.12971232 23.80029297 61.35058594 C22.16648601 57.01630231 20.52887013 52.68347251 18.8895874 48.35125732 C17.18448244 43.84451574 15.48210457 39.33675294 13.78393555 34.82739258 C13.03378774 32.83547913 12.28148692 30.84437461 11.52661133 28.85424805 C11.20072021 27.98968994 10.8748291 27.12513184 10.5390625 26.234375 C10.26271973 25.50444336 9.98637695 24.77451172 9.70166016 24.02246094 C9.01127984 22.03251294 8.47714909 20.05052946 8 18 C5.36 18 2.72 18 0 18 C0 12.06 0 6.12 0 0 Z " fill="#FAFCFE" transform="translate(134,132)"/>
<path d="M0 0 C1.28265244 0.00303635 1.28265244 0.00303635 2.59121704 0.00613403 C3.93501938 0.00350555 3.93501938 0.00350555 5.30596924 0.00082397 C8.28258166 -0.0035959 11.25913521 -0.00065608 14.23574829 0.00271606 C16.2945863 0.00204306 18.35342423 0.00107307 20.41226196 -0.00018311 C24.73331456 -0.00166026 29.05434652 0.00049505 33.37539673 0.00515747 C38.92761375 0.01085477 44.47978244 0.00757586 50.03199768 0.00158501 C54.2851905 -0.00202012 58.53837178 -0.00088224 62.79156494 0.0017128 C64.83939622 0.0023822 66.88722852 0.00155319 68.93505859 -0.00076675 C71.79182737 -0.00329249 74.64851672 0.0005462 77.50527954 0.00613403 C78.36038116 0.0041098 79.21548279 0.00208557 80.09649658 0 C85.9339859 0.02126618 85.9339859 0.02126618 87.04824829 1.13552856 C87.13672572 3.65646933 87.16352131 6.14983749 87.14590454 8.67068481 C87.14448959 9.42393539 87.14307465 10.17718597 87.14161682 10.95326233 C87.13600205 13.36822416 87.12344712 15.78309457 87.11074829 18.19802856 C87.10573519 19.83149077 87.10117195 21.46495442 87.09707642 23.09841919 C87.08687704 27.11085287 87.06730474 31.12308792 87.04824829 35.13552856 C80.44824829 35.13552856 73.84824829 35.13552856 67.04824829 35.13552856 C67.04824829 30.18552856 67.04824829 25.23552856 67.04824829 20.13552856 C62.42824829 20.13552856 57.80824829 20.13552856 53.04824829 20.13552856 C53.04824829 40.26552856 53.04824829 60.39552856 53.04824829 81.13552856 C56.34824829 81.13552856 59.64824829 81.13552856 63.04824829 81.13552856 C63.04824829 87.07552856 63.04824829 93.01552856 63.04824829 99.13552856 C47.86824829 99.13552856 32.68824829 99.13552856 17.04824829 99.13552856 C17.04824829 93.52552856 17.04824829 87.91552856 17.04824829 82.13552856 C20.34824829 82.13552856 23.64824829 82.13552856 27.04824829 82.13552856 C27.04824829 61.67552856 27.04824829 41.21552856 27.04824829 20.13552856 C22.42824829 20.13552856 17.80824829 20.13552856 13.04824829 20.13552856 C13.06887329 22.42490356 13.08949829 24.71427856 13.11074829 27.07302856 C13.13195697 29.42719188 13.12096571 31.78239302 13.04824829 34.13552856 C12.04824829 35.13552856 12.04824829 35.13552856 10.19058228 35.24905396 C9.00444336 35.24119873 9.00444336 35.24119873 7.79434204 35.23318481 C6.94033813 35.22996216 6.08633423 35.2267395 5.20645142 35.22341919 C4.30861938 35.21504028 3.41078735 35.20666138 2.48574829 35.19802856 C1.58404907 35.19351685 0.68234985 35.18900513 -0.24667358 35.18435669 C-2.48176485 35.17253081 -4.71672608 35.15605077 -6.95175171 35.13552856 C-6.97640361 30.31172055 -6.99458864 25.4879489 -7.00668335 20.66409302 C-7.01172345 19.02183392 -7.01855549 17.37957933 -7.02719116 15.73733521 C-7.03927096 13.38177378 -7.04498309 11.02627148 -7.04940796 8.67068481 C-7.05456924 7.9321376 -7.05973053 7.19359039 -7.06504822 6.43266296 C-7.06524421 4.66654769 -7.0136989 2.90055711 -6.95175171 1.13552856 C-5.09827803 -0.71794512 -2.46649845 0.00898554 0 0 Z " fill="#FBFDFE" transform="translate(491.9517517089844,131.86447143554688)"/>
<path d="M0 0 C15.51 0 31.02 0 47 0 C47 5.94 47 11.88 47 18 C43.37 18 39.74 18 36 18 C36 38.79 36 59.58 36 81 C39.63 81 43.26 81 47 81 C47 86.94 47 92.88 47 99 C31.49 99 15.98 99 0 99 C0 93.39 0 87.78 0 82 C3.63 82 7.26 82 11 82 C11 60.88 11 39.76 11 18 C7.37 18 3.74 18 0 18 C0 12.06 0 6.12 0 0 Z " fill="#F8FBFD" transform="translate(431,132)"/>
<path d="M0 0 C4.5478125 -0.12375 4.5478125 -0.12375 9.1875 -0.25 C10.60712036 -0.30462402 10.60712036 -0.30462402 12.05541992 -0.36035156 C16.21574001 -0.41511005 18.4337676 -0.35090458 22.05078125 1.890625 C25.58758928 5.71803249 25.54973891 9.14714949 25.4296875 14.22265625 C24.97975297 17.13086943 24.56468348 18.5014243 22.625 20.6875 C16.55646075 25.1090453 6.90161162 23.30226036 0 23 C0 15.41 0 7.82 0 0 Z " fill="#3792DE" transform="translate(367,152)"/>
<path d="M0 0 C1.28265244 0.00303635 1.28265244 0.00303635 2.59121704 0.00613403 C3.93501938 0.00350555 3.93501938 0.00350555 5.30596924 0.00082397 C8.28258166 -0.0035959 11.25913521 -0.00065608 14.23574829 0.00271606 C16.2945863 0.00204306 18.35342423 0.00107307 20.41226196 -0.00018311 C24.73331456 -0.00166026 29.05434652 0.00049505 33.37539673 0.00515747 C38.92761375 0.01085477 44.47978244 0.00757586 50.03199768 0.00158501 C54.2851905 -0.00202012 58.53837178 -0.00088224 62.79156494 0.0017128 C64.83939622 0.0023822 66.88722852 0.00155319 68.93505859 -0.00076675 C71.79182737 -0.00329249 74.64851672 0.0005462 77.50527954 0.00613403 C78.36038116 0.0041098 79.21548279 0.00208557 80.09649658 0 C85.9339859 0.02126618 85.9339859 0.02126618 87.04824829 1.13552856 C87.13672572 3.65646933 87.16352131 6.14983749 87.14590454 8.67068481 C87.14448959 9.42393539 87.14307465 10.17718597 87.14161682 10.95326233 C87.13600205 13.36822416 87.12344712 15.78309457 87.11074829 18.19802856 C87.10573519 19.83149077 87.10117195 21.46495442 87.09707642 23.09841919 C87.08687704 27.11085287 87.06730474 31.12308792 87.04824829 35.13552856 C80.44824829 35.13552856 73.84824829 35.13552856 67.04824829 35.13552856 C67.04824829 30.18552856 67.04824829 25.23552856 67.04824829 20.13552856 C62.42824829 20.13552856 57.80824829 20.13552856 53.04824829 20.13552856 C53.04824829 40.26552856 53.04824829 60.39552856 53.04824829 81.13552856 C56.34824829 81.13552856 59.64824829 81.13552856 63.04824829 81.13552856 C63.04824829 81.46552856 63.04824829 81.79552856 63.04824829 82.13552856 C59.41824829 82.13552856 55.78824829 82.13552856 52.04824829 82.13552856 C52.04824829 61.34552856 52.04824829 40.55552856 52.04824829 19.13552856 C57.32824829 19.13552856 62.60824829 19.13552856 68.04824829 19.13552856 C68.04824829 24.08552856 68.04824829 29.03552856 68.04824829 34.13552856 C73.65824829 34.13552856 79.26824829 34.13552856 85.04824829 34.13552856 C85.04824829 23.57552856 85.04824829 13.01552856 85.04824829 2.13552856 C55.01824829 2.13552856 24.98824829 2.13552856 -5.95175171 2.13552856 C-5.95175171 12.69552856 -5.95175171 23.25552856 -5.95175171 34.13552856 C-0.01175171 34.13552856 5.92824829 34.13552856 12.04824829 34.13552856 C12.04824829 34.46552856 12.04824829 34.79552856 12.04824829 35.13552856 C5.77824829 35.13552856 -0.49175171 35.13552856 -6.95175171 35.13552856 C-6.97466191 30.31165789 -6.99458857 25.48797468 -7.00668335 20.66409302 C-7.01172345 19.02183392 -7.01855549 17.37957933 -7.02719116 15.73733521 C-7.03927096 13.38177378 -7.04498309 11.02627148 -7.04940796 8.67068481 C-7.05456924 7.9321376 -7.05973053 7.19359039 -7.06504822 6.43266296 C-7.06524421 4.66654769 -7.0136989 2.90055711 -6.95175171 1.13552856 C-5.09827803 -0.71794512 -2.46649845 0.00898554 0 0 Z " fill="#A8CFF1" transform="translate(491.9517517089844,131.86447143554688)"/>
<path d="M0 0 C2.45034599 2.97389439 3.79381164 5.71530238 5.04296875 9.3515625 C5.39423828 10.36734375 5.74550781 11.383125 6.10742188 12.4296875 C6.64206055 14.01136719 6.64206055 14.01136719 7.1875 15.625 C7.55552734 16.6871875 7.92355469 17.749375 8.30273438 18.84375 C11 26.71035772 11 26.71035772 11 29 C4.4 29 -2.2 29 -9 29 C-8.34502955 24.41520688 -7.82786295 20.98117407 -6.40625 16.7578125 C-6.09816406 15.83742187 -5.79007813 14.91703125 -5.47265625 13.96875 C-4.99119141 12.56109375 -4.99119141 12.56109375 -4.5 11.125 C-4.01853516 9.68253906 -4.01853516 9.68253906 -3.52734375 8.2109375 C-1.14060834 1.14060834 -1.14060834 1.14060834 0 0 Z " fill="#489BE1" transform="translate(630,158)"/>
<path d="M0 0 C1.72974441 0.00015918 3.45949355 0.0058569 5.18920898 0.01586914 C6.09783188 0.01728409 7.00645477 0.01869904 7.94261169 0.02015686 C10.85687494 0.02577346 13.77106254 0.03832874 16.68530273 0.05102539 C18.65600475 0.05603825 20.62670797 0.06060153 22.59741211 0.06469727 C27.43926188 0.07489922 32.28094721 0.0944713 37.12280273 0.11352539 C37.12280273 6.05352539 37.12280273 11.99352539 37.12280273 18.11352539 C34.48280273 18.11352539 31.84280273 18.11352539 29.12280273 18.11352539 C29.12280273 17.78352539 29.12280273 17.45352539 29.12280273 17.11352539 C31.10280273 17.11352539 33.08280273 17.11352539 35.12280273 17.11352539 C35.12280273 12.16352539 35.12280273 7.21352539 35.12280273 2.11352539 C22.25280273 2.11352539 9.38280273 2.11352539 -3.87719727 2.11352539 C-3.87719727 7.39352539 -3.87719727 12.67352539 -3.87719727 18.11352539 C-4.20719727 18.11352539 -4.53719727 18.11352539 -4.87719727 18.11352539 C-4.90404039 15.30096258 -4.92395914 12.48865298 -4.93969727 9.67602539 C-4.94807617 8.87358398 -4.95645508 8.07114258 -4.96508789 7.24438477 C-4.97371157 5.20057318 -4.92947876 3.15668637 -4.87719727 1.11352539 C-3.87719727 0.11352539 -3.87719727 0.11352539 0 0 Z " fill="#BBDAF4" transform="translate(195.877197265625,131.886474609375)"/>
<path d="M0 0 C0.66 0 1.32 0 2 0 C2.83790789 1.78953185 3.67019396 3.58169695 4.5 5.375 C4.9640625 6.37273438 5.428125 7.37046875 5.90625 8.3984375 C7 11 7 11 7 13 C6.34 13 5.68 13 5 13 C4.67 12.34 4.34 11.68 4 11 C0.97065509 10.34227572 0.97065509 10.34227572 -2 10 C-2.33 10.99 -2.66 11.98 -3 13 C-3.66 13 -4.32 13 -5 13 C-4.39254603 8.14036821 -2.27241033 4.2594482 0 0 Z " fill="#8FC1EC" transform="translate(351,767)"/>
<path d="M0 0 C3.73639216 1.24546405 4.18756513 2.63404953 6 6 C6.33 4.02 6.66 2.04 7 0 C7.66 0 8.32 0 9 0 C9 4.29 9 8.58 9 13 C8.34 13 7.68 13 7 13 C5.02 9.535 5.02 9.535 3 6 C2.67 8.31 2.34 10.62 2 13 C1.34 13 0.68 13 0 13 C0 8.71 0 4.42 0 0 Z " fill="#78B5E9" transform="translate(270,767)"/>
<path d="M0 0 C0.66 0 1.32 0 2 0 C2 4.29 2 8.58 2 13 C1.01 13 0.02 13 -1 13 C-1.99 11.02 -2.98 9.04 -4 7 C-4.33 8.98 -4.66 10.96 -5 13 C-5.66 13 -6.32 13 -7 13 C-7 9.04 -7 5.08 -7 1 C-2.5 3.25 -2.5 3.25 -1 7 C-0.67 4.69 -0.34 2.38 0 0 Z " fill="#84BBEA" transform="translate(645,767)"/>
<path d="M0 0 C0.99 0.33 1.98 0.66 3 1 C4.1875 4.0625 4.1875 4.0625 5 7 C5.66 7 6.32 7 7 7 C7 4.69 7 2.38 7 0 C7.66 0 8.32 0 9 0 C9 4.29 9 8.58 9 13 C8.34 13 7.68 13 7 13 C5.02 9.535 5.02 9.535 3 6 C2.67 7.98 2.34 9.96 2 12 C1.34 12 0.68 12 0 12 C0 8.04 0 4.08 0 0 Z " fill="#7BB6E9" transform="translate(440,767)"/>
<path d="M0 0 C0.99 0.99 1.98 1.98 3 3 C0.03 3 -2.94 3 -6 3 C-6 5.64 -6 8.28 -6 11 C-4.02 11 -2.04 11 0 11 C0 9.68 0 8.36 0 7 C-0.99 6.67 -1.98 6.34 -3 6 C-1.35 6 0.3 6 2 6 C2 7.98 2 9.96 2 12 C-4.22680412 13.31720856 -4.22680412 13.31720856 -7.4375 12 C-9 10 -9 10 -9.4375 6.5 C-9 3 -9 3 -7.875 1.0625 C-5.11019567 -0.50422245 -3.11811483 -0.38976435 0 0 Z " fill="#76B4E8" transform="translate(592,767)"/>
<path d="M0 0 C3.0625 0.1875 3.0625 0.1875 5.0625 2.1875 C5.0625 2.8475 5.0625 3.5075 5.0625 4.1875 C4.0725 4.6825 4.0725 4.6825 3.0625 5.1875 C3.0625 6.5075 3.0625 7.8275 3.0625 9.1875 C1.0825 9.1875 -0.8975 9.1875 -2.9375 9.1875 C-4.30373674 6.45502652 -4.065926 4.20551098 -3.9375 1.1875 C-2.9375 0.1875 -2.9375 0.1875 0 0 Z " fill="#F0F7FC" transform="translate(588.9375,768.8125)"/>
<path d="M0 0 C0.66 0.33 1.32 0.66 2 1 C1.67 1.66 1.34 2.32 1 3 C-0.98 3 -2.96 3 -5 3 C-5.38133299 4.9914056 -5.71325582 6.99279077 -6 9 C-5.01732141 10.20561184 -5.01732141 10.20561184 -3.15234375 10.09765625 C-1.1015625 10.06510417 0.94921875 10.03255208 3 10 C1.10442866 12.52742845 0.19410622 12.97169284 -3 13.4375 C-6 13 -6 13 -7.875 11.375 C-9.31414524 8.33680449 -9.42454541 6.32560568 -9 3 C-6.77648059 -0.70586568 -4.03105606 -0.3430686 0 0 Z " fill="#78B5E9" transform="translate(674,767)"/>
<path d="M0 0 C2.31 0 4.62 0 7 0 C7 0.66 7 1.32 7 2 C5.35 2 3.7 2 2 2 C2 2.99 2 3.98 2 5 C3.32 5 4.64 5 6 5 C6 5.66 6 6.32 6 7 C4.68 7 3.36 7 2 7 C2 8.32 2 9.64 2 11 C3.65 11 5.3 11 7 11 C7 11.66 7 12.32 7 13 C4.69 13 2.38 13 0 13 C0 8.71 0 4.42 0 0 Z " fill="#7BB6E9" transform="translate(695,767)"/>
<path d="M0 0 C2.31 0 4.62 0 7 0 C7 0.66 7 1.32 7 2 C5.35 2 3.7 2 2 2 C2 2.99 2 3.98 2 5 C3.32 5 4.64 5 6 5 C6 5.66 6 6.32 6 7 C4.68 7 3.36 7 2 7 C2 8.32 2 9.64 2 11 C3.65 11 5.3 11 7 11 C7 11.66 7 12.32 7 13 C4.69 13 2.38 13 0 13 C0 8.71 0 4.42 0 0 Z " fill="#7AB6E9" transform="translate(613,767)"/>
<path d="M0 0 C2.31 0 4.62 0 7 0 C7 0.66 7 1.32 7 2 C5.35 2 3.7 2 2 2 C2 2.99 2 3.98 2 5 C3.32 5 4.64 5 6 5 C6 5.66 6 6.32 6 7 C4.68 7 3.36 7 2 7 C2 8.32 2 9.64 2 11 C3.65 11 5.3 11 7 11 C7 11.66 7 12.32 7 13 C4.69 13 2.38 13 0 13 C0 8.71 0 4.42 0 0 Z " fill="#7AB6E9" transform="translate(492,767)"/>
<path d="M0 0 C1.670625 0.37125 1.670625 0.37125 3.375 0.75 C3.705 1.41 4.035 2.07 4.375 2.75 C1.735 2.75 -0.905 2.75 -3.625 2.75 C-4.62717064 6.33327753 -4.62717064 6.33327753 -3.625 9.75 C-0.985 9.75 1.655 9.75 4.375 9.75 C2.63607595 11.94653565 1.73748966 12.68493775 -1.0625 13.1875 C-3.625 12.75 -3.625 12.75 -6 11.1875 C-7.625 8.75 -7.625 8.75 -7.5625 5.125 C-6.23799943 0.35679793 -4.89229965 -0.33739998 0 0 Z " fill="#79B5E9" transform="translate(204.625,767.25)"/>
<path d="M0 0 C0.99 0 1.98 0 3 0 C3 3.63 3 7.26 3 11 C4.32 11 5.64 11 7 11 C7 11.66 7 12.32 7 13 C4.69 13 2.38 13 0 13 C0 8.71 0 4.42 0 0 Z " fill="#94C4ED" transform="translate(226,767)"/>
<path d="M0 0 C0.99 0 1.98 0 3 0 C3 3.96 3 7.92 3 12 C3.99 12.33 4.98 12.66 6 13 C4.02 13 2.04 13 0 13 C0 8.71 0 4.42 0 0 Z " fill="#92C3ED" transform="translate(539,767)"/>
<path d="M0 0 C0.99 0 1.98 0 3 0 C3 3.96 3 7.92 3 12 C3.99 12.33 4.98 12.66 6 13 C4.02 13 2.04 13 0 13 C0 8.71 0 4.42 0 0 Z " fill="#92C3ED" transform="translate(516,767)"/>
<path d="M0 0 C0.99 0 1.98 0 3 0 C3 4.29 3 8.58 3 13 C2.01 13 1.02 13 0 13 C0 8.71 0 4.42 0 0 Z " fill="#9ECAEF" transform="translate(562,767)"/>
<path d="M0 0 C0.99 0 1.98 0 3 0 C3 4.29 3 8.58 3 13 C2.01 13 1.02 13 0 13 C0 8.71 0 4.42 0 0 Z " fill="#9ECAEF" transform="translate(419,767)"/>
<path d="M0 0 C0.66 0 1.32 0 2 0 C2 3.63 2 7.26 2 11 C3.32 11 4.64 11 6 11 C6 11.66 6 12.32 6 13 C4.02 13 2.04 13 0 13 C0 8.71 0 4.42 0 0 Z " fill="#79B6E9" transform="translate(375,767)"/>
<path d="M0 0 C0.66 0.33 1.32 0.66 2 1 C-1.3 4.3 -4.6 7.6 -8 11 C-8 8 -8 8 -5.6875 5.5 C-4.800625 4.675 -3.91375 3.85 -3 3 C-2.401875 2.401875 -1.80375 1.80375 -1.1875 1.1875 C-0.795625 0.795625 -0.40375 0.40375 0 0 Z " fill="#D1E5F7" transform="translate(702,136)"/>
<path d="M0 0 C0.33 0 0.66 0 1 0 C1 4.29 1 8.58 1 13 C0.34 13 -0.32 13 -1 13 C-1.5625 11.0625 -1.5625 11.0625 -2 9 C-1.67 8.67 -1.34 8.34 -1 8 C-0.76924918 6.65252916 -0.58846937 5.29622435 -0.4375 3.9375 C-0.293125 2.638125 -0.14875 1.33875 0 0 Z " fill="#69ACE6" transform="translate(448,767)"/>
<path d="M0 0 C0.99 0.33 1.98 0.66 3 1 C3 1.99 3 2.98 3 4 C2.34 4 1.68 4 1 4 C1 6.64 1 9.28 1 12 C0.67 12 0.34 12 0 12 C0 8.04 0 4.08 0 0 Z " fill="#64AAE5" transform="translate(638,768)"/>
<path d="M0 0 C0.66 0 1.32 0 2 0 C2 0.99 2 1.98 2 3 C1.34 3 0.68 3 0 3 C-0.33 4.65 -0.66 6.3 -1 8 C-1.66 7.67 -2.32 7.34 -3 7 C-2.01 4.69 -1.02 2.38 0 0 Z " fill="#6DAFE7" transform="translate(351,767)"/>
</svg>
